<svg width="50" height="18" viewBox="0 0 50 18" fill="none" xmlns="http://www.w3.org/2000/svg">
<path d="M25.4943 14.1392C24.8381 14.1392 24.2531 14.0265 23.7393 13.8011C23.2289 13.5758 22.8229 13.2625 22.5213 12.8615C22.223 12.4571 22.0606 11.9882 22.0341 11.4545H23.2869C23.3134 11.7827 23.4261 12.0661 23.625 12.3047C23.8239 12.54 24.084 12.7223 24.4055 12.8516C24.727 12.9808 25.0833 13.0455 25.4744 13.0455C25.9119 13.0455 26.2997 12.9692 26.6378 12.8168C26.9759 12.6643 27.241 12.4522 27.4332 12.1804C27.6255 11.9086 27.7216 11.5938 27.7216 11.2358C27.7216 10.8613 27.6288 10.5315 27.4432 10.2464C27.2576 9.9581 26.9858 9.73272 26.6278 9.57031C26.2699 9.40791 25.8324 9.3267 25.3153 9.3267H24.5V8.23295H25.3153C25.7197 8.23295 26.0743 8.16004 26.3793 8.0142C26.6875 7.86837 26.9278 7.66288 27.1001 7.39773C27.2758 7.13258 27.3636 6.82102 27.3636 6.46307C27.3636 6.11837 27.2874 5.81842 27.1349 5.56321C26.9825 5.308 26.767 5.10914 26.4886 4.96662C26.2135 4.8241 25.8887 4.75284 25.5142 4.75284C25.1629 4.75284 24.8314 4.81747 24.5199 4.94673C24.2116 5.07268 23.9598 5.25663 23.7642 5.49858C23.5687 5.73722 23.4626 6.02557 23.446 6.36364H22.2528C22.2727 5.83002 22.4335 5.36269 22.7351 4.96165C23.0367 4.55729 23.4311 4.24242 23.9183 4.01705C24.4089 3.79167 24.9474 3.67898 25.5341 3.67898C26.1638 3.67898 26.7041 3.80658 27.1548 4.06179C27.6056 4.31368 27.9519 4.64678 28.1939 5.06108C28.4358 5.47538 28.5568 5.92282 28.5568 6.40341C28.5568 6.9768 28.406 7.46567 28.1044 7.87003C27.8061 8.27438 27.4001 8.55445 26.8864 8.71023V8.78977C27.5294 8.89583 28.0315 9.16927 28.3928 9.61009C28.754 10.0476 28.9347 10.5895 28.9347 11.2358C28.9347 11.7893 28.7839 12.2865 28.4822 12.7273C28.1839 13.1648 27.7763 13.5095 27.2592 13.7614C26.7422 14.0133 26.1539 14.1392 25.4943 14.1392ZM34.2891 14.1392C33.54 14.1392 32.902 13.9354 32.375 13.5277C31.848 13.1167 31.4453 12.5218 31.1669 11.7429C30.8885 10.9607 30.7493 10.0161 30.7493 8.90909C30.7493 7.80871 30.8885 6.86908 31.1669 6.0902C31.4486 5.308 31.853 4.71141 32.38 4.30043C32.9103 3.88613 33.5466 3.67898 34.2891 3.67898C35.0315 3.67898 35.6662 3.88613 36.1932 4.30043C36.7235 4.71141 37.1278 5.308 37.4062 6.0902C37.688 6.86908 37.8288 7.80871 37.8288 8.90909C37.8288 10.0161 37.6896 10.9607 37.4112 11.7429C37.1328 12.5218 36.7301 13.1167 36.2031 13.5277C35.6761 13.9354 35.0381 14.1392 34.2891 14.1392ZM34.2891 13.0455C35.0315 13.0455 35.6082 12.6875 36.0192 11.9716C36.4302 11.2557 36.6357 10.2348 36.6357 8.90909C36.6357 8.02746 36.5412 7.27675 36.3523 6.65696C36.1667 6.03717 35.8982 5.56487 35.5469 5.24006C35.1989 4.91525 34.7796 4.75284 34.2891 4.75284C33.5533 4.75284 32.9782 5.11577 32.5639 5.84162C32.1496 6.56416 31.9425 7.58665 31.9425 8.90909C31.9425 9.79072 32.0353 10.5398 32.2209 11.1562C32.4065 11.7727 32.6733 12.2417 33.0213 12.5632C33.3726 12.8847 33.7952 13.0455 34.2891 13.0455ZM43.9141 12.4091L46.5788 6.36364H47.6925L44.3913 14H43.4368L40.1953 6.36364H41.2891L43.9141 12.4091ZM40.9112 6.36364V14H39.7379V6.36364H40.9112ZM46.9169 14V6.36364H48.0902V14H46.9169Z" fill="#2D1509"/>
<path fill-rule="evenodd" clip-rule="evenodd" d="M6.75 0.75H11.25V2.25H6.75V0.75ZM8.25 10.5V6H9.75V10.5H8.25ZM14.2725 5.5425L15.3375 4.4775C15.015 4.095 14.6625 3.735 14.28 3.42L13.215 4.485C12.0525 3.555 10.59 3 9 3C5.2725 3 2.25 6.0225 2.25 9.75C2.25 13.4775 5.265 16.5 9 16.5C12.735 16.5 15.75 13.4775 15.75 9.75C15.75 8.16 15.195 6.6975 14.2725 5.5425ZM3.75 9.75C3.75 12.6525 6.0975 15 9 15C11.9025 15 14.25 12.6525 14.25 9.75C14.25 6.8475 11.9025 4.5 9 4.5C6.0975 4.5 3.75 6.8475 3.75 9.75Z" fill="#2D1509"/>
</svg>
