<svg width="262" height="265" viewBox="0 0 262 265" fill="none" xmlns="http://www.w3.org/2000/svg">
<path opacity="0.4" d="M0.831626 45.1935C0.287226 45.1005 -0.0787135 44.5838 0.0142768 44.0394L1.52964 35.1679C1.62263 34.6235 2.13934 34.2575 2.68374 34.3505C3.22814 34.4435 3.59408 34.9602 3.50109 35.5046L2.1541 43.3904L10.0399 44.7374C10.5843 44.8304 10.9502 45.3471 10.8572 45.8915C10.7642 46.4359 10.2475 46.8018 9.70313 46.7088L0.831626 45.1935ZM193.78 263.013C213.982 242.073 219.238 206.886 215.509 179.426C213.645 165.7 209.557 154.081 204.123 147.224C201.412 143.803 198.426 141.641 195.285 140.91C192.174 140.185 188.752 140.827 185.061 143.328L183.939 141.672C187.998 138.923 191.983 138.087 195.739 138.962C199.465 139.83 202.807 142.344 205.69 145.982C211.443 153.241 215.605 165.268 217.491 179.157C221.262 206.925 216.018 242.842 195.22 264.402L193.78 263.013ZM185.061 143.328C177.757 148.276 175.945 156.349 178.042 164.927C180.145 173.531 186.173 182.485 194.299 188.772C202.418 195.052 212.522 198.589 222.768 196.574C232.995 194.561 243.594 186.97 252.623 170.519L254.377 171.481C245.156 188.28 234.13 196.376 223.154 198.536C212.196 200.692 201.519 196.885 193.076 190.353C184.639 183.827 178.323 174.501 176.099 165.402C173.868 156.276 175.743 147.224 183.939 141.672L185.061 143.328ZM252.623 170.519C261.561 154.235 261.443 130.504 253.316 105.869C245.199 81.2671 229.144 55.9339 206.475 36.5514C183.815 17.1763 154.562 3.75873 120.023 2.93283C85.4836 2.1069 45.5653 13.8713 1.57795 45.0238L0.422047 43.3917C44.6847 12.0442 85.0164 0.0951538 120.071 0.933411C155.126 1.77167 184.81 15.3959 207.775 35.0313C230.731 54.6594 246.988 80.3055 255.215 105.243C263.432 130.147 263.689 154.515 254.377 171.481L252.623 170.519Z" fill="url(#paint0_linear_1_1013)"/>
<defs>
<linearGradient id="paint0_linear_1_1013" x1="146.5" y1="-26.9999" x2="194" y2="285" gradientUnits="userSpaceOnUse">
<stop offset="0.423666" stop-color="#AE968A"/>
<stop offset="1" stop-color="#AE968A" stop-opacity="0"/>
</linearGradient>
</defs>
</svg>
