<svg width="16" height="16" viewBox="0 0 16 16" fill="none" xmlns="http://www.w3.org/2000/svg">
<path fill-rule="evenodd" clip-rule="evenodd" d="M0.25 0.5V2H1.75L4.45 7.6925L3.4375 9.5225C2.89 10.5275 3.61 11.75 4.75 11.75H13.75V10.25H4.75L5.575 8.75H11.1625C11.725 8.75 12.22 8.4425 12.475 7.9775L15.16 3.11C15.4375 2.615 15.0775 2 14.5075 2H3.4075L2.7025 0.5H0.25ZM4.75 12.5C3.925 12.5 3.2575 13.175 3.2575 14C3.2575 14.825 3.925 15.5 4.75 15.5C5.575 15.5 6.25 14.825 6.25 14C6.25 13.175 5.575 12.5 4.75 12.5ZM10.7575 14C10.7575 13.175 11.425 12.5 12.25 12.5C13.075 12.5 13.75 13.175 13.75 14C13.75 14.825 13.075 15.5 12.25 15.5C11.425 15.5 10.7575 14.825 10.7575 14Z" fill="#EB5C05"/>
</svg>
